{
	"asset":{
		"generator":"Khronos glTF Blender I/O v4.2.57",
		"version":"2.0"
	},
	"scene":0,
	"scenes":[
		{
			"name":"Scene",
			"nodes":[
				0,
				1,
				2,
				3
			]
		}
	],
	"nodes":[
		{
			"mesh":0,
			"name":"Cube.007",
			"scale":[
				0.4958924353122711,
				0.4958924353122711,
				0.4958924353122711
			],
			"translation":[
				-0.006173473782837391,
				1.7539926767349243,
				-0.20621494948863983
			]
		},
		{
			"mesh":1,
			"name":"Plane",
			"rotation":[
				0.7070896029472351,
				0.004932399373501539,
				0.0049323998391628265,
				0.7070895433425903
			],
			"scale":[
				0.31404179334640503,
				0.08949412405490875,
				0.08949413150548935
			],
			"translation":[
				-0.4388432800769806,
				2.32795786857605,
				-1.111194372177124
			]
		},
		{
			"mesh":2,
			"name":"Sphere",
			"rotation":[
				0.6782501935958862,
				0.013807930983603,
				-0.014954077079892159,
				0.7345491647720337
			],
			"scale":[
				0.28064849972724915,
				0.28064849972724915,
				0.28064852952957153
			],
			"translation":[
				-0.34872573614120483,
				1.961490273475647,
				-0.7370056509971619
			]
		},
		{
			"mesh":3,
			"name":"Sphere.001",
			"scale":[
				1.0649998188018799,
				1.0649998188018799,
				1.0649998188018799
			],
			"translation":[
				-0.006173473782837391,
				2.3419861793518066,
				-0.13406822085380554
			]
		}
	],
	"materials":[
		{
			"doubleSided":true,
			"name":"Material.002",
			"pbrMetallicRoughness":{
				"metallicFactor":0,
				"roughnessFactor":0.5
			}
		},
		{
			"doubleSided":true,
			"name":"Hair",
			"pbrMetallicRoughness":{
				"baseColorFactor":[
					0.015989886596798897,
					0.007944844663143158,
					0.004502658266574144,
					1
				],
				"metallicFactor":0,
				"roughnessFactor":0.5
			}
		},
		{
			"doubleSided":true,
			"name":"Eye ball",
			"pbrMetallicRoughness":{
				"baseColorFactor":[
					0.800000011920929,
					0.800000011920929,
					0.800000011920929,
					1
				],
				"metallicFactor":0,
				"roughnessFactor":0.25
			}
		},
		{
			"doubleSided":true,
			"name":"Pupil",
			"pbrMetallicRoughness":{
				"baseColorFactor":[
					0,
					0,
					0,
					1
				],
				"metallicFactor":0,
				"roughnessFactor":0.25
			}
		}
	],
	"meshes":[
		{
			"name":"Cube.007",
			"primitives":[
				{
					"attributes":{
						"POSITION":0,
						"NORMAL":1,
						"COLOR_0":2,
						"COLOR_1":3
					},
					"indices":4,
					"material":0
				}
			]
		},
		{
			"name":"Plane.003",
			"primitives":[
				{
					"attributes":{
						"POSITION":5,
						"NORMAL":6,
						"TEXCOORD_0":7
					},
					"indices":8,
					"material":1
				}
			]
		},
		{
			"name":"Sphere.001",
			"primitives":[
				{
					"attributes":{
						"POSITION":9,
						"NORMAL":10,
						"TEXCOORD_0":11
					},
					"indices":12,
					"material":2
				},
				{
					"attributes":{
						"POSITION":13,
						"NORMAL":14,
						"TEXCOORD_0":15
					},
					"indices":16,
					"material":3
				}
			]
		},
		{
			"name":"Sphere",
			"primitives":[
				{
					"attributes":{
						"POSITION":17,
						"NORMAL":18,
						"TEXCOORD_0":19
					},
					"indices":20,
					"material":1
				}
			]
		}
	],
	"accessors":[
		{
			"bufferView":0,
			"componentType":5126,
			"count":619531,
			"max":[
				2.2529079914093018,
				2.7261247634887695,
				1.8867045640945435
			],
			"min":[
				-2.258788824081421,
				-3.5936098098754883,
				-2.2265238761901855
			],
			"type":"VEC3"
		},
		{
			"bufferView":1,
			"componentType":5126,
			"count":619531,
			"type":"VEC3"
		},
		{
			"bufferView":2,
			"componentType":5121,
			"count":619531,
			"normalized":true,
			"type":"VEC4"
		},
		{
			"bufferView":3,
			"componentType":5126,
			"count":619531,
			"type":"VEC3"
		},
		{
			"bufferView":4,
			"componentType":5125,
			"count":792198,
			"type":"SCALAR"
		},
		{
			"bufferView":5,
			"componentType":5126,
			"count":16,
			"max":[
				1.1338411569595337,
				1.832701325416565,
				1.1796660423278809
			],
			"min":[
				-0.6054551601409912,
				0.04413193464279175,
				-0.9443886280059814
			],
			"type":"VEC3"
		},
		{
			"bufferView":6,
			"componentType":5126,
			"count":16,
			"type":"VEC3"
		},
		{
			"bufferView":7,
			"componentType":5126,
			"count":16,
			"type":"VEC2"
		},
		{
			"bufferView":8,
			"componentType":5123,
			"count":24,
			"type":"SCALAR"
		},
		{
			"bufferView":9,
			"componentType":5126,
			"count":461,
			"max":[
				0.9990742802619934,
				0.9985607862472534,
				0.9991322755813599
			],
			"min":[
				-0.9990793466567993,
				-0.8600556254386902,
				-0.9991323947906494
			],
			"type":"VEC3"
		},
		{
			"bufferView":10,
			"componentType":5126,
			"count":461,
			"type":"VEC3"
		},
		{
			"bufferView":11,
			"componentType":5126,
			"count":461,
			"type":"VEC2"
		},
		{
			"bufferView":12,
			"componentType":5123,
			"count":2400,
			"type":"SCALAR"
		},
		{
			"bufferView":13,
			"componentType":5126,
			"count":131,
			"max":[
				0.5232099294662476,
				-0.8004904985427856,
				0.5238744616508484
			],
			"min":[
				-0.5869048237800598,
				-0.998560905456543,
				-0.5863020420074463
			],
			"type":"VEC3"
		},
		{
			"bufferView":14,
			"componentType":5126,
			"count":131,
			"type":"VEC3"
		},
		{
			"bufferView":15,
			"componentType":5126,
			"count":131,
			"type":"VEC2"
		},
		{
			"bufferView":16,
			"componentType":5123,
			"count":480,
			"type":"SCALAR"
		},
		{
			"bufferView":17,
			"componentType":5126,
			"count":222840,
			"max":[
				0.9529458284378052,
				0.8683514595031738,
				0.9607641100883484
			],
			"min":[
				-0.9527042508125305,
				-0.921500563621521,
				-0.8057414293289185
			],
			"type":"VEC3"
		},
		{
			"bufferView":18,
			"componentType":5126,
			"count":222840,
			"type":"VEC3"
		},
		{
			"bufferView":19,
			"componentType":5126,
			"count":222840,
			"type":"VEC2"
		},
		{
			"bufferView":20,
			"componentType":5125,
			"count":1166028,
			"type":"SCALAR"
		}
	],
	"bufferViews":[
		{
			"buffer":0,
			"byteLength":7434372,
			"byteOffset":0,
			"target":34962
		},
		{
			"buffer":0,
			"byteLength":7434372,
			"byteOffset":7434372,
			"target":34962
		},
		{
			"buffer":0,
			"byteLength":2478124,
			"byteOffset":14868744,
			"target":34962
		},
		{
			"buffer":0,
			"byteLength":7434372,
			"byteOffset":17346868,
			"target":34962
		},
		{
			"buffer":0,
			"byteLength":3168792,
			"byteOffset":24781240,
			"target":34963
		},
		{
			"buffer":0,
			"byteLength":192,
			"byteOffset":27950032,
			"target":34962
		},
		{
			"buffer":0,
			"byteLength":192,
			"byteOffset":27950224,
			"target":34962
		},
		{
			"buffer":0,
			"byteLength":128,
			"byteOffset":27950416,
			"target":34962
		},
		{
			"buffer":0,
			"byteLength":48,
			"byteOffset":27950544,
			"target":34963
		},
		{
			"buffer":0,
			"byteLength":5532,
			"byteOffset":27950592,
			"target":34962
		},
		{
			"buffer":0,
			"byteLength":5532,
			"byteOffset":27956124,
			"target":34962
		},
		{
			"buffer":0,
			"byteLength":3688,
			"byteOffset":27961656,
			"target":34962
		},
		{
			"buffer":0,
			"byteLength":4800,
			"byteOffset":27965344,
			"target":34963
		},
		{
			"buffer":0,
			"byteLength":1572,
			"byteOffset":27970144,
			"target":34962
		},
		{
			"buffer":0,
			"byteLength":1572,
			"byteOffset":27971716,
			"target":34962
		},
		{
			"buffer":0,
			"byteLength":1048,
			"byteOffset":27973288,
			"target":34962
		},
		{
			"buffer":0,
			"byteLength":960,
			"byteOffset":27974336,
			"target":34963
		},
		{
			"buffer":0,
			"byteLength":2674080,
			"byteOffset":27975296,
			"target":34962
		},
		{
			"buffer":0,
			"byteLength":2674080,
			"byteOffset":30649376,
			"target":34962
		},
		{
			"buffer":0,
			"byteLength":1782720,
			"byteOffset":33323456,
			"target":34962
		},
		{
			"buffer":0,
			"byteLength":4664112,
			"byteOffset":35106176,
			"target":34963
		}
	],
	"buffers":[
		{
			"byteLength":39770288,
			"uri":"Christopher.bin"
		}
	]
}
